# xmcd
#
# Track frame offsets:
#	150
#	20051
#	47082
#	67547
#	96182
#	125152
#	149136
#	199001
#	223175
#	246701
#	259925
#
# Disc length: 3645 seconds
#
# Revision: 0
# Processed by: cddbd v1.4PL0 Copyright (c) Steve Scherf et al.
# Submitted via: audiograbber 1.81.03
#
DISCID=b40e3b0b
DTITLE=Eric Clapton - Crossroads 2 - Live in the Seventies [CD4]
DYEAR=1996
DGENRE=Blues
TTITLE0=Loving you is sweeter than ever
TTITLE1=Worried life blues
TTITLE2=Tulsa Time
TTITLE3=Early in the morning
TTITLE4=Wonderful tonight
TTITLE5=Kind hearted woman
TTITLE6=Double trouble
TTITLE7=Crossroads
TTITLE8=To make somebody happy
TTITLE9=Cryin'
TTITLE10=Water on the ground
EXTD=
EXTT0=
EXTT1=
EXTT2=
EXTT3=
EXTT4=
EXTT5=
EXTT6=
EXTT7=
EXTT8=
EXTT9=
EXTT10=
PLAYORDER=
